<svg width="584" height="190" viewBox="0 0 584 190" fill="none" xmlns="http://www.w3.org/2000/svg">
<path d="M529.729 47.04C514.637 47.04 502.485 57.232 500.133 74.284H559.913C559.521 57.624 546.389 47.04 529.729 47.04ZM580.297 105.84C574.221 124.656 557.169 139.748 530.709 139.748C499.741 139.748 476.809 117.796 476.809 83.888C476.809 49.98 498.761 28.224 530.709 28.224C561.481 28.224 583.237 49.588 583.237 81.34C583.237 85.064 583.041 88.592 582.453 92.316H499.937C501.505 110.152 514.245 120.932 530.709 120.932C544.429 120.932 552.073 114.268 556.189 105.84H580.297Z" fill="#382075"/>
<path d="M377.684 45.864C384.544 36.848 397.676 28.224 415.316 28.224C443.736 28.224 466.08 50.176 466.08 83.496C466.08 116.816 443.736 139.748 415.316 139.748C397.48 139.748 384.74 130.732 377.684 122.304V189.336H355.34V29.988H377.684V45.864ZM443.344 83.496C443.344 60.172 427.272 47.628 410.416 47.628C393.756 47.628 377.684 60.76 377.684 83.888C377.684 107.212 393.756 120.344 410.416 120.344C427.272 120.344 443.344 106.82 443.344 83.496Z" fill="#382075"/>
<path d="M218.977 83.496C218.977 50.176 241.517 28.224 269.937 28.224C288.165 28.224 300.709 36.848 307.373 45.668V29.988H329.913V137.984H307.373V121.912C300.513 131.124 287.577 139.748 269.545 139.748C241.517 139.748 218.977 116.816 218.977 83.496ZM307.373 83.888C307.373 60.76 291.497 47.628 274.641 47.628C257.981 47.628 241.909 60.172 241.909 83.496C241.909 106.82 257.981 120.344 274.641 120.344C291.497 120.344 307.373 107.212 307.373 83.888Z" fill="#382075"/>
<path d="M177.466 81.144V137.984H155.122V29.988H177.466V45.668C183.738 34.888 194.518 28.224 209.806 28.224V51.352H204.122C187.658 51.352 177.466 58.212 177.466 81.144Z" fill="#382075"/>
<path d="M69.58 0C98 0 122.5 14.308 132.888 40.964H106.036C98.784 27.244 85.848 20.384 69.58 20.384C42.532 20.384 22.932 39.592 22.932 69.58C22.932 99.568 42.532 118.972 69.58 118.972C94.276 118.972 109.76 104.076 113.092 81.144H61.936V63.308H137.004V80.752C132.888 112.308 106.232 139.16 69.58 139.16C31.164 139.16 0 110.544 0 69.58C0 28.812 31.164 0 69.58 0Z" fill="#382075"/>
</svg>
